<svg xmlns="http://www.w3.org/2000/svg" width="76.359" height="80.298" viewBox="0 0 76.359 80.298">
  <g id="Group_24" data-name="Group 24" transform="translate(-913.78 233.656)">
    <path id="Path_92" data-name="Path 92" d="M916.98-171.865l3.19,20.986,10.956-10.087c1.326,33.368-.4,35.589-.4,35.589s3.649,6.47,23.821,6.47,23.11-6.47,23.11-6.47c0-7.1-3.73-4.919-2.448-34.684,6.67,5.41,10.984,8.281,10.984,8.056l4.932-19.765c-4.3-4.04-11.755-10.9-13.838-12.808h.062c-.823-1.465-12.436-5.374-12.436-5.374" transform="translate(-2.098 -35.45)" fill="none" stroke="#000" stroke-miterlimit="10" stroke-width="2"/>
    <path id="Path_93" data-name="Path 93" d="M1272.82,50.609" transform="translate(-297.452 -235.12)" fill="none" stroke="#000" stroke-miterlimit="10" stroke-width="2"/>
    <path id="Path_94" data-name="Path 94" d="M1259.544-15.488" transform="translate(-286.433 -180.258)" fill="none" stroke="#000" stroke-miterlimit="10" stroke-width="2"/>
    <path id="Path_95" data-name="Path 95" d="M999.469-18.933" transform="translate(-70.566 -177.398)" fill="none" stroke="#000" stroke-miterlimit="10" stroke-width="2"/>
    <path id="Path_96" data-name="Path 96" d="M1065.952-225.07l1.609-5.58c2.47-2.465,10.28-1.971,11.195-1.971s7.327.119,7.973,1.935c.669,1.877,1.142,3.207,1.736,5.285C1081.63-227.109,1072.79-226.627,1065.952-225.07Z" transform="translate(-125.748)" fill="none" stroke="#000" stroke-miterlimit="10" stroke-width="2"/>
    <path id="Path_97" data-name="Path 97" d="M1048.557-142.682c-15.223-5.557-32.2-5.557-43.913-.293" transform="translate(-74.861 -71.194)" fill="none" stroke="#000" stroke-miterlimit="10" stroke-width="2"/>
    <path id="Path_98" data-name="Path 98" d="M914.452-145.382s11.565-10.495,14.113-13.134c0,0,2.973,16.457.9,23.408l-11.492,10.579" transform="translate(0 -61.542)" fill="none" stroke="#000" stroke-miterlimit="10" stroke-width="2"/>
    <path id="Path_99" data-name="Path 99" d="M1273.4-144.34c-5.031-4.729-14.481-12.876-14.481-12.876s-2.517,12.645-1.492,24.538c6.7,5.44,11.041,8.329,11.041,8.1" transform="translate(-284.47 -62.621)" fill="none" stroke="#000" stroke-miterlimit="10" stroke-width="2"/>
    <line id="Line_15" data-name="Line 15" y1="5.012" x2="11.639" transform="translate(928.565 -225.07)" fill="none" stroke="#000" stroke-miterlimit="10" stroke-width="2"/>
  </g>
</svg>
