<svg id="fabric" xmlns="http://www.w3.org/2000/svg" width="58.883" height="65.539" viewBox="0 0 58.883 65.539">
  <path id="Path_17" data-name="Path 17" d="M57.6,5.109H30.72a1.28,1.28,0,0,0,0,2.56h25.6v50.19H15.14a3.822,3.822,0,0,0,.22-1.28V49.4a1.28,1.28,0,0,0,0-2.561v-7.68a1.28,1.28,0,0,0,0-2.561v-7.68a1.28,1.28,0,0,0,0-2.561v-7.68a1.28,1.28,0,0,0,0-2.561V8.961a3.827,3.827,0,0,0-.224-1.292H20.48a1.28,1.28,0,1,0,0-2.56H12.74L12.8,1.3A1.281,1.281,0,0,0,11.52,0H3.84A1.28,1.28,0,0,0,2.56,1.26L2.5,5.364A3.846,3.846,0,0,0,0,8.961V56.579A3.846,3.846,0,0,0,2.56,60.2v4.06a1.28,1.28,0,0,0,1.28,1.28h7.68a1.28,1.28,0,0,0,1.28-1.28v-3.84H57.6a1.28,1.28,0,0,0,1.28-1.28V6.389a1.28,1.28,0,0,0-1.28-1.28ZM11.44,57.859H3.84a1.281,1.281,0,0,1-1.28-1.28V8.961a1.281,1.281,0,0,1,1.28-1.28h7.68a1.281,1.281,0,0,1,1.28,1.28V56.579a1.281,1.281,0,0,1-1.28,1.28ZM10.22,2.56,10.18,5.12H5.06L5.1,2.56ZM5.12,62.979v-2.56h5.12v2.56Zm0,0" transform="translate(0 0)"/>
  <path id="Path_18" data-name="Path 18" d="M391.276,88.514A1.28,1.28,0,1,0,390,87.233h0A1.28,1.28,0,0,0,391.276,88.514Zm0,0" transform="translate(-340.074 -74.951)"/>
  <path id="Path_19" data-name="Path 19" d="M390,167.234a1.28,1.28,0,1,0,1.28-1.281,1.28,1.28,0,0,0-1.28,1.281Zm0,0" transform="translate(-340.074 -144.71)"/>
  <path id="Path_20" data-name="Path 20" d="M390,247.234a1.28,1.28,0,1,0,1.28-1.281,1.28,1.28,0,0,0-1.28,1.281Zm0,0" transform="translate(-340.074 -214.47)"/>
  <path id="Path_21" data-name="Path 21" d="M390,327.234a1.28,1.28,0,1,0,1.28-1.281,1.28,1.28,0,0,0-1.28,1.281Zm0,0" transform="translate(-340.074 -284.229)"/>
  <path id="Path_22" data-name="Path 22" d="M390,407.234a1.28,1.28,0,1,0,1.28-1.281,1.28,1.28,0,0,0-1.28,1.281Zm0,0" transform="translate(-340.074 -353.989)"/>
  <path id="Path_23" data-name="Path 23" d="M351.276,128.514a1.28,1.28,0,1,0-1.28-1.281h0A1.28,1.28,0,0,0,351.276,128.514Zm0,0" transform="translate(-305.194 -109.83)"/>
  <path id="Path_24" data-name="Path 24" d="M350,207.234a1.28,1.28,0,1,0,1.28-1.281,1.28,1.28,0,0,0-1.28,1.281Zm0,0" transform="translate(-305.194 -179.59)"/>
  <path id="Path_25" data-name="Path 25" d="M350,287.234a1.28,1.28,0,1,0,1.28-1.281,1.28,1.28,0,0,0-1.28,1.281Zm0,0" transform="translate(-305.194 -249.35)"/>
  <path id="Path_26" data-name="Path 26" d="M350,367.234a1.28,1.28,0,1,0,1.28-1.281,1.28,1.28,0,0,0-1.28,1.281Zm0,0" transform="translate(-305.194 -319.109)"/>
  <path id="Path_27" data-name="Path 27" d="M311.276,88.514A1.28,1.28,0,1,0,310,87.233h0A1.28,1.28,0,0,0,311.276,88.514Zm0,0" transform="translate(-270.315 -74.951)"/>
  <path id="Path_28" data-name="Path 28" d="M310,167.234a1.28,1.28,0,1,0,1.28-1.281,1.28,1.28,0,0,0-1.28,1.281Zm0,0" transform="translate(-270.315 -144.71)"/>
  <path id="Path_29" data-name="Path 29" d="M310,247.234a1.28,1.28,0,1,0,1.28-1.281,1.28,1.28,0,0,0-1.28,1.281Zm0,0" transform="translate(-270.315 -214.47)"/>
  <path id="Path_30" data-name="Path 30" d="M310,327.234a1.28,1.28,0,1,0,1.28-1.281,1.28,1.28,0,0,0-1.28,1.281Zm0,0" transform="translate(-270.315 -284.229)"/>
  <path id="Path_31" data-name="Path 31" d="M310,407.234a1.28,1.28,0,1,0,1.28-1.281,1.28,1.28,0,0,0-1.28,1.281Zm0,0" transform="translate(-270.315 -353.989)"/>
  <path id="Path_32" data-name="Path 32" d="M271.276,128.514a1.28,1.28,0,1,0-1.28-1.281h0A1.28,1.28,0,0,0,271.276,128.514Zm0,0" transform="translate(-235.435 -109.83)"/>
  <path id="Path_33" data-name="Path 33" d="M270,207.234a1.28,1.28,0,1,0,1.28-1.281,1.28,1.28,0,0,0-1.28,1.281Zm0,0" transform="translate(-235.435 -179.59)"/>
  <path id="Path_34" data-name="Path 34" d="M270,287.234a1.28,1.28,0,1,0,1.28-1.281,1.28,1.28,0,0,0-1.28,1.281Zm0,0" transform="translate(-235.435 -249.35)"/>
  <path id="Path_35" data-name="Path 35" d="M270,367.234a1.28,1.28,0,1,0,1.28-1.281,1.28,1.28,0,0,0-1.28,1.281Zm0,0" transform="translate(-235.435 -319.109)"/>
  <path id="Path_36" data-name="Path 36" d="M231.276,88.514A1.28,1.28,0,1,0,230,87.233h0A1.28,1.28,0,0,0,231.276,88.514Zm0,0" transform="translate(-200.555 -74.951)"/>
  <path id="Path_37" data-name="Path 37" d="M230,167.234a1.28,1.28,0,1,0,1.28-1.281,1.28,1.28,0,0,0-1.28,1.281Zm0,0" transform="translate(-200.555 -144.71)"/>
  <path id="Path_38" data-name="Path 38" d="M230,247.234a1.28,1.28,0,1,0,1.28-1.281,1.28,1.28,0,0,0-1.28,1.281Zm0,0" transform="translate(-200.555 -214.47)"/>
  <path id="Path_39" data-name="Path 39" d="M230,327.234a1.28,1.28,0,1,0,1.28-1.281,1.28,1.28,0,0,0-1.28,1.281Zm0,0" transform="translate(-200.555 -284.229)"/>
  <path id="Path_40" data-name="Path 40" d="M230,407.234a1.28,1.28,0,1,0,1.28-1.281,1.28,1.28,0,0,0-1.28,1.281Zm0,0" transform="translate(-200.555 -353.989)"/>
  <path id="Path_41" data-name="Path 41" d="M191.276,125.953a1.28,1.28,0,0,0-1.28,1.28h0a1.28,1.28,0,1,0,1.28-1.281Zm0,0" transform="translate(-165.675 -109.83)"/>
  <path id="Path_42" data-name="Path 42" d="M191.276,205.953a1.28,1.28,0,0,0-1.28,1.28h0a1.28,1.28,0,1,0,1.28-1.281Zm0,0" transform="translate(-165.675 -179.59)"/>
  <path id="Path_43" data-name="Path 43" d="M191.276,285.953a1.28,1.28,0,0,0-1.28,1.28h0a1.28,1.28,0,1,0,1.28-1.281Zm0,0" transform="translate(-165.675 -249.349)"/>
  <path id="Path_44" data-name="Path 44" d="M191.276,365.953a1.28,1.28,0,0,0-1.28,1.28h0a1.28,1.28,0,1,0,1.28-1.281Zm0,0" transform="translate(-165.675 -319.109)"/>
  <path id="Path_45" data-name="Path 45" d="M151.276,85.953a1.28,1.28,0,0,0-1.28,1.28h0a1.28,1.28,0,1,0,1.28-1.281Zm0,0" transform="translate(-130.796 -74.951)"/>
  <path id="Path_46" data-name="Path 46" d="M151.276,165.953a1.28,1.28,0,0,0-1.28,1.28h0a1.28,1.28,0,1,0,1.28-1.281Zm0,0" transform="translate(-130.796 -144.71)"/>
  <path id="Path_47" data-name="Path 47" d="M151.276,245.953a1.28,1.28,0,0,0-1.28,1.28h0a1.28,1.28,0,1,0,1.28-1.281Zm0,0" transform="translate(-130.796 -214.47)"/>
  <path id="Path_48" data-name="Path 48" d="M151.276,325.953a1.28,1.28,0,0,0-1.28,1.28h0a1.28,1.28,0,1,0,1.28-1.281Zm0,0" transform="translate(-130.796 -284.229)"/>
  <path id="Path_49" data-name="Path 49" d="M151.276,405.953a1.28,1.28,0,0,0-1.28,1.28h0a1.28,1.28,0,1,0,1.28-1.281Zm0,0" transform="translate(-130.796 -353.989)"/>
  <path id="Path_50" data-name="Path 50" d="M71.276,85.953A1.28,1.28,0,0,0,70,87.233h0a1.28,1.28,0,1,0,1.28-1.281Zm0,0" transform="translate(-61.036 -74.951)"/>
  <path id="Path_51" data-name="Path 51" d="M71.276,165.953a1.28,1.28,0,0,0-1.28,1.28h0a1.28,1.28,0,1,0,1.28-1.281Zm0,0" transform="translate(-61.036 -144.71)"/>
  <path id="Path_52" data-name="Path 52" d="M71.276,245.953a1.28,1.28,0,0,0-1.28,1.28h0a1.28,1.28,0,1,0,1.28-1.281Zm0,0" transform="translate(-61.036 -214.47)"/>
  <path id="Path_53" data-name="Path 53" d="M71.276,325.953a1.28,1.28,0,0,0-1.28,1.28h0a1.28,1.28,0,1,0,1.28-1.281Zm0,0" transform="translate(-61.036 -284.229)"/>
  <path id="Path_54" data-name="Path 54" d="M71.276,405.953a1.28,1.28,0,0,0-1.28,1.28h0a1.28,1.28,0,1,0,1.28-1.281Zm0,0" transform="translate(-61.036 -353.989)"/>
  <path id="Path_55" data-name="Path 55" d="M31.276,125.953a1.28,1.28,0,0,0-1.28,1.28h0a1.28,1.28,0,1,0,1.28-1.281Zm0,0" transform="translate(-26.156 -109.83)"/>
  <path id="Path_56" data-name="Path 56" d="M31.276,205.953a1.28,1.28,0,0,0-1.28,1.28h0a1.28,1.28,0,1,0,1.28-1.281Zm0,0" transform="translate(-26.156 -179.59)"/>
  <path id="Path_57" data-name="Path 57" d="M31.276,285.953a1.28,1.28,0,0,0-1.28,1.28h0a1.28,1.28,0,1,0,1.28-1.281Zm0,0" transform="translate(-26.156 -249.349)"/>
  <path id="Path_58" data-name="Path 58" d="M31.276,365.953a1.28,1.28,0,0,0-1.28,1.28h0a1.28,1.28,0,1,0,1.28-1.281Zm0,0" transform="translate(-26.156 -319.109)"/>
  <path id="Path_59" data-name="Path 59" d="M191.273,42.47a1.28,1.28,0,1,0,0-2.56h0a1.28,1.28,0,0,0,0,2.56Zm0,0" transform="translate(-165.672 -34.801)"/>
</svg>
