<svg xmlns="http://www.w3.org/2000/svg" width="30.284" height="30.284" viewBox="0 0 30.284 30.284">
  <g id="instagram-logo" transform="translate(0)">
    <g id="Group_10" data-name="Group 10">
      <g id="Group_9" data-name="Group 9">
        <path id="Path_9" data-name="Path 9" d="M22.887,25.919a3.026,3.026,0,1,0-3.03-3.032A3.036,3.036,0,0,0,22.887,25.919Z" transform="translate(-7.746 -7.745)" fill="#10a1ae"/>
        <path id="Path_10" data-name="Path 10" d="M33.811,16.879V13.96h-.38l-2.54.008.01,2.92Z" transform="translate(-12.05 -5.445)" fill="#10a1ae"/>
        <path id="Path_11" data-name="Path 11" d="M15.142,0A15.142,15.142,0,1,0,30.284,15.142,15.159,15.159,0,0,0,15.142,0Zm8.612,13.375v7.051a3.332,3.332,0,0,1-3.328,3.329H9.859a3.332,3.332,0,0,1-3.328-3.329V9.86A3.331,3.331,0,0,1,9.859,6.531H20.425A3.332,3.332,0,0,1,23.754,9.86Z" fill="#10a1ae"/>
        <path id="Path_12" data-name="Path 12" d="M25.1,23.7a4.71,4.71,0,1,1-9.074-1.767H13.457V28.98a1.65,1.65,0,0,0,1.65,1.649H25.673a1.651,1.651,0,0,0,1.65-1.649V21.929H24.752A4.646,4.646,0,0,1,25.1,23.7Z" transform="translate(-5.249 -8.554)" fill="#10a1ae"/>
      </g>
    </g>
  </g>
</svg>
