<svg xmlns="http://www.w3.org/2000/svg" xmlns:xlink="http://www.w3.org/1999/xlink" width="30" height="30" viewBox="0 0 30 30">
  <defs>
    <clipPath id="clip-path">
      <rect id="Rectangle_46" data-name="Rectangle 46" width="30" height="30" transform="translate(896 480)" fill="#fff" stroke="rgba(112,112,112,0.22)" stroke-width="1"/>
    </clipPath>
  </defs>
  <g id="Group_39" data-name="Group 39" transform="translate(-896 -480)">
    <g id="Rectangle_45" data-name="Rectangle 45" transform="translate(896 480)" fill="#fff" stroke="rgba(112,112,112,0.22)" stroke-width="1">
      <rect width="30" height="30" stroke="none"/>
      <rect x="0.5" y="0.5" width="29" height="29" fill="none"/>
    </g>
    <g id="Mask_Group_5" data-name="Mask Group 5" clip-path="url(#clip-path)">
      <g id="Group_33" data-name="Group 33" transform="translate(-2)">
        <path id="flower" d="M4.209,2.565A1.644,1.644,0,1,0,5.854,4.209,1.646,1.646,0,0,0,4.209,2.565Zm0,2.631A.987.987,0,1,1,5.2,4.209.988.988,0,0,1,4.209,5.2Zm4.21-.987a1.646,1.646,0,0,0-.8-1.412,1.644,1.644,0,0,0-2-2A1.644,1.644,0,0,0,2.8.8a1.644,1.644,0,0,0-2,2,1.644,1.644,0,0,0,0,2.824,1.644,1.644,0,0,0,2,2,1.644,1.644,0,0,0,2.824,0,1.644,1.644,0,0,0,2-2,1.646,1.646,0,0,0,.8-1.412ZM7.1,5.141a.329.329,0,0,0-.188.453A.987.987,0,0,1,5.594,6.912a.329.329,0,0,0-.453.188.987.987,0,0,1-1.863,0,.329.329,0,0,0-.453-.188A.987.987,0,0,1,1.507,5.595a.329.329,0,0,0-.188-.453.987.987,0,0,1,0-1.863.329.329,0,0,0,.188-.453A.987.987,0,0,1,2.824,1.507a.329.329,0,0,0,.453-.188.987.987,0,0,1,1.863,0,.329.329,0,0,0,.453.188A.987.987,0,0,1,6.912,2.824a.329.329,0,0,0,.188.453.987.987,0,0,1,0,1.863Zm0,0" transform="translate(897 478.93)" fill="#dfdfdf"/>
        <path id="flower-2" data-name="flower" d="M4.209,2.565A1.644,1.644,0,1,0,5.854,4.209,1.646,1.646,0,0,0,4.209,2.565Zm0,2.631A.987.987,0,1,1,5.2,4.209.988.988,0,0,1,4.209,5.2Zm4.21-.987a1.646,1.646,0,0,0-.8-1.412,1.644,1.644,0,0,0-2-2A1.644,1.644,0,0,0,2.8.8a1.644,1.644,0,0,0-2,2,1.644,1.644,0,0,0,0,2.824,1.644,1.644,0,0,0,2,2,1.644,1.644,0,0,0,2.824,0,1.644,1.644,0,0,0,2-2,1.646,1.646,0,0,0,.8-1.412ZM7.1,5.141a.329.329,0,0,0-.188.453A.987.987,0,0,1,5.594,6.912a.329.329,0,0,0-.453.188.987.987,0,0,1-1.863,0,.329.329,0,0,0-.453-.188A.987.987,0,0,1,1.507,5.595a.329.329,0,0,0-.188-.453.987.987,0,0,1,0-1.863.329.329,0,0,0,.188-.453A.987.987,0,0,1,2.824,1.507a.329.329,0,0,0,.453-.188.987.987,0,0,1,1.863,0,.329.329,0,0,0,.453.188A.987.987,0,0,1,6.912,2.824a.329.329,0,0,0,.188.453.987.987,0,0,1,0,1.863Zm0,0" transform="translate(897 487.93)" fill="#dfdfdf"/>
        <path id="flower-3" data-name="flower" d="M4.209,2.565A1.644,1.644,0,1,0,5.854,4.209,1.646,1.646,0,0,0,4.209,2.565Zm0,2.631A.987.987,0,1,1,5.2,4.209.988.988,0,0,1,4.209,5.2Zm4.21-.987a1.646,1.646,0,0,0-.8-1.412,1.644,1.644,0,0,0-2-2A1.644,1.644,0,0,0,2.8.8a1.644,1.644,0,0,0-2,2,1.644,1.644,0,0,0,0,2.824,1.644,1.644,0,0,0,2,2,1.644,1.644,0,0,0,2.824,0,1.644,1.644,0,0,0,2-2,1.646,1.646,0,0,0,.8-1.412ZM7.1,5.141a.329.329,0,0,0-.188.453A.987.987,0,0,1,5.594,6.912a.329.329,0,0,0-.453.188.987.987,0,0,1-1.863,0,.329.329,0,0,0-.453-.188A.987.987,0,0,1,1.507,5.595a.329.329,0,0,0-.188-.453.987.987,0,0,1,0-1.863.329.329,0,0,0,.188-.453A.987.987,0,0,1,2.824,1.507a.329.329,0,0,0,.453-.188.987.987,0,0,1,1.863,0,.329.329,0,0,0,.453.188A.987.987,0,0,1,6.912,2.824a.329.329,0,0,0,.188.453.987.987,0,0,1,0,1.863Zm0,0" transform="translate(897 496.93)" fill="#dfdfdf"/>
        <path id="flower-4" data-name="flower" d="M4.209,2.565A1.644,1.644,0,1,0,5.854,4.209,1.646,1.646,0,0,0,4.209,2.565Zm0,2.631A.987.987,0,1,1,5.2,4.209.988.988,0,0,1,4.209,5.2Zm4.21-.987a1.646,1.646,0,0,0-.8-1.412,1.644,1.644,0,0,0-2-2A1.644,1.644,0,0,0,2.8.8a1.644,1.644,0,0,0-2,2,1.644,1.644,0,0,0,0,2.824,1.644,1.644,0,0,0,2,2,1.644,1.644,0,0,0,2.824,0,1.644,1.644,0,0,0,2-2,1.646,1.646,0,0,0,.8-1.412ZM7.1,5.141a.329.329,0,0,0-.188.453A.987.987,0,0,1,5.594,6.912a.329.329,0,0,0-.453.188.987.987,0,0,1-1.863,0,.329.329,0,0,0-.453-.188A.987.987,0,0,1,1.507,5.595a.329.329,0,0,0-.188-.453.987.987,0,0,1,0-1.863.329.329,0,0,0,.188-.453A.987.987,0,0,1,2.824,1.507a.329.329,0,0,0,.453-.188.987.987,0,0,1,1.863,0,.329.329,0,0,0,.453.188A.987.987,0,0,1,6.912,2.824a.329.329,0,0,0,.188.453.987.987,0,0,1,0,1.863Zm0,0" transform="translate(897 505.93)" fill="#dfdfdf"/>
        <path id="flower-5" data-name="flower" d="M4.209,2.565A1.644,1.644,0,1,0,5.854,4.209,1.646,1.646,0,0,0,4.209,2.565Zm0,2.631A.987.987,0,1,1,5.2,4.209.988.988,0,0,1,4.209,5.2Zm4.21-.987a1.646,1.646,0,0,0-.8-1.412,1.644,1.644,0,0,0-2-2A1.644,1.644,0,0,0,2.8.8a1.644,1.644,0,0,0-2,2,1.644,1.644,0,0,0,0,2.824,1.644,1.644,0,0,0,2,2,1.644,1.644,0,0,0,2.824,0,1.644,1.644,0,0,0,2-2,1.646,1.646,0,0,0,.8-1.412ZM7.1,5.141a.329.329,0,0,0-.188.453A.987.987,0,0,1,5.594,6.912a.329.329,0,0,0-.453.188.987.987,0,0,1-1.863,0,.329.329,0,0,0-.453-.188A.987.987,0,0,1,1.507,5.595a.329.329,0,0,0-.188-.453.987.987,0,0,1,0-1.863.329.329,0,0,0,.188-.453A.987.987,0,0,1,2.824,1.507a.329.329,0,0,0,.453-.188.987.987,0,0,1,1.863,0,.329.329,0,0,0,.453.188A.987.987,0,0,1,6.912,2.824a.329.329,0,0,0,.188.453.987.987,0,0,1,0,1.863Zm0,0" transform="translate(905 482.93)" fill="#dfdfdf"/>
        <path id="flower-6" data-name="flower" d="M4.209,2.565A1.644,1.644,0,1,0,5.854,4.209,1.646,1.646,0,0,0,4.209,2.565Zm0,2.631A.987.987,0,1,1,5.2,4.209.988.988,0,0,1,4.209,5.2Zm4.21-.987a1.646,1.646,0,0,0-.8-1.412,1.644,1.644,0,0,0-2-2A1.644,1.644,0,0,0,2.8.8a1.644,1.644,0,0,0-2,2,1.644,1.644,0,0,0,0,2.824,1.644,1.644,0,0,0,2,2,1.644,1.644,0,0,0,2.824,0,1.644,1.644,0,0,0,2-2,1.646,1.646,0,0,0,.8-1.412ZM7.1,5.141a.329.329,0,0,0-.188.453A.987.987,0,0,1,5.594,6.912a.329.329,0,0,0-.453.188.987.987,0,0,1-1.863,0,.329.329,0,0,0-.453-.188A.987.987,0,0,1,1.507,5.595a.329.329,0,0,0-.188-.453.987.987,0,0,1,0-1.863.329.329,0,0,0,.188-.453A.987.987,0,0,1,2.824,1.507a.329.329,0,0,0,.453-.188.987.987,0,0,1,1.863,0,.329.329,0,0,0,.453.188A.987.987,0,0,1,6.912,2.824a.329.329,0,0,0,.188.453.987.987,0,0,1,0,1.863Zm0,0" transform="translate(905 491.93)" fill="#dfdfdf"/>
        <path id="flower-7" data-name="flower" d="M4.209,2.565A1.644,1.644,0,1,0,5.854,4.209,1.646,1.646,0,0,0,4.209,2.565Zm0,2.631A.987.987,0,1,1,5.2,4.209.988.988,0,0,1,4.209,5.2Zm4.21-.987a1.646,1.646,0,0,0-.8-1.412,1.644,1.644,0,0,0-2-2A1.644,1.644,0,0,0,2.8.8a1.644,1.644,0,0,0-2,2,1.644,1.644,0,0,0,0,2.824,1.644,1.644,0,0,0,2,2,1.644,1.644,0,0,0,2.824,0,1.644,1.644,0,0,0,2-2,1.646,1.646,0,0,0,.8-1.412ZM7.1,5.141a.329.329,0,0,0-.188.453A.987.987,0,0,1,5.594,6.912a.329.329,0,0,0-.453.188.987.987,0,0,1-1.863,0,.329.329,0,0,0-.453-.188A.987.987,0,0,1,1.507,5.595a.329.329,0,0,0-.188-.453.987.987,0,0,1,0-1.863.329.329,0,0,0,.188-.453A.987.987,0,0,1,2.824,1.507a.329.329,0,0,0,.453-.188.987.987,0,0,1,1.863,0,.329.329,0,0,0,.453.188A.987.987,0,0,1,6.912,2.824a.329.329,0,0,0,.188.453.987.987,0,0,1,0,1.863Zm0,0" transform="translate(905 500.93)" fill="#dfdfdf"/>
        <path id="flower-8" data-name="flower" d="M4.209,2.565A1.644,1.644,0,1,0,5.854,4.209,1.646,1.646,0,0,0,4.209,2.565Zm0,2.631A.987.987,0,1,1,5.2,4.209.988.988,0,0,1,4.209,5.2Zm4.21-.987a1.646,1.646,0,0,0-.8-1.412,1.644,1.644,0,0,0-2-2A1.644,1.644,0,0,0,2.8.8a1.644,1.644,0,0,0-2,2,1.644,1.644,0,0,0,0,2.824,1.644,1.644,0,0,0,2,2,1.644,1.644,0,0,0,2.824,0,1.644,1.644,0,0,0,2-2,1.646,1.646,0,0,0,.8-1.412ZM7.1,5.141a.329.329,0,0,0-.188.453A.987.987,0,0,1,5.594,6.912a.329.329,0,0,0-.453.188.987.987,0,0,1-1.863,0,.329.329,0,0,0-.453-.188A.987.987,0,0,1,1.507,5.595a.329.329,0,0,0-.188-.453.987.987,0,0,1,0-1.863.329.329,0,0,0,.188-.453A.987.987,0,0,1,2.824,1.507a.329.329,0,0,0,.453-.188.987.987,0,0,1,1.863,0,.329.329,0,0,0,.453.188A.987.987,0,0,1,6.912,2.824a.329.329,0,0,0,.188.453.987.987,0,0,1,0,1.863Zm0,0" transform="translate(905 509.93)" fill="#dfdfdf"/>
        <path id="flower-9" data-name="flower" d="M4.209,2.565A1.644,1.644,0,1,0,5.854,4.209,1.646,1.646,0,0,0,4.209,2.565Zm0,2.631A.987.987,0,1,1,5.2,4.209.988.988,0,0,1,4.209,5.2Zm4.21-.987a1.646,1.646,0,0,0-.8-1.412,1.644,1.644,0,0,0-2-2A1.644,1.644,0,0,0,2.8.8a1.644,1.644,0,0,0-2,2,1.644,1.644,0,0,0,0,2.824,1.644,1.644,0,0,0,2,2,1.644,1.644,0,0,0,2.824,0,1.644,1.644,0,0,0,2-2,1.646,1.646,0,0,0,.8-1.412ZM7.1,5.141a.329.329,0,0,0-.188.453A.987.987,0,0,1,5.594,6.912a.329.329,0,0,0-.453.188.987.987,0,0,1-1.863,0,.329.329,0,0,0-.453-.188A.987.987,0,0,1,1.507,5.595a.329.329,0,0,0-.188-.453.987.987,0,0,1,0-1.863.329.329,0,0,0,.188-.453A.987.987,0,0,1,2.824,1.507a.329.329,0,0,0,.453-.188.987.987,0,0,1,1.863,0,.329.329,0,0,0,.453.188A.987.987,0,0,1,6.912,2.824a.329.329,0,0,0,.188.453.987.987,0,0,1,0,1.863Zm0,0" transform="translate(905 473.93)" fill="#dfdfdf"/>
        <path id="flower-10" data-name="flower" d="M4.209,2.565A1.644,1.644,0,1,0,5.854,4.209,1.646,1.646,0,0,0,4.209,2.565Zm0,2.631A.987.987,0,1,1,5.2,4.209.988.988,0,0,1,4.209,5.2Zm4.21-.987a1.646,1.646,0,0,0-.8-1.412,1.644,1.644,0,0,0-2-2A1.644,1.644,0,0,0,2.8.8a1.644,1.644,0,0,0-2,2,1.644,1.644,0,0,0,0,2.824,1.644,1.644,0,0,0,2,2,1.644,1.644,0,0,0,2.824,0,1.644,1.644,0,0,0,2-2,1.646,1.646,0,0,0,.8-1.412ZM7.1,5.141a.329.329,0,0,0-.188.453A.987.987,0,0,1,5.594,6.912a.329.329,0,0,0-.453.188.987.987,0,0,1-1.863,0,.329.329,0,0,0-.453-.188A.987.987,0,0,1,1.507,5.595a.329.329,0,0,0-.188-.453.987.987,0,0,1,0-1.863.329.329,0,0,0,.188-.453A.987.987,0,0,1,2.824,1.507a.329.329,0,0,0,.453-.188.987.987,0,0,1,1.863,0,.329.329,0,0,0,.453.188A.987.987,0,0,1,6.912,2.824a.329.329,0,0,0,.188.453.987.987,0,0,1,0,1.863Zm0,0" transform="translate(913 478.93)" fill="#dfdfdf"/>
        <path id="flower-11" data-name="flower" d="M4.209,2.565A1.644,1.644,0,1,0,5.854,4.209,1.646,1.646,0,0,0,4.209,2.565Zm0,2.631A.987.987,0,1,1,5.2,4.209.988.988,0,0,1,4.209,5.2Zm4.21-.987a1.646,1.646,0,0,0-.8-1.412,1.644,1.644,0,0,0-2-2A1.644,1.644,0,0,0,2.8.8a1.644,1.644,0,0,0-2,2,1.644,1.644,0,0,0,0,2.824,1.644,1.644,0,0,0,2,2,1.644,1.644,0,0,0,2.824,0,1.644,1.644,0,0,0,2-2,1.646,1.646,0,0,0,.8-1.412ZM7.1,5.141a.329.329,0,0,0-.188.453A.987.987,0,0,1,5.594,6.912a.329.329,0,0,0-.453.188.987.987,0,0,1-1.863,0,.329.329,0,0,0-.453-.188A.987.987,0,0,1,1.507,5.595a.329.329,0,0,0-.188-.453.987.987,0,0,1,0-1.863.329.329,0,0,0,.188-.453A.987.987,0,0,1,2.824,1.507a.329.329,0,0,0,.453-.188.987.987,0,0,1,1.863,0,.329.329,0,0,0,.453.188A.987.987,0,0,1,6.912,2.824a.329.329,0,0,0,.188.453.987.987,0,0,1,0,1.863Zm0,0" transform="translate(913 487.93)" fill="#dfdfdf"/>
        <path id="flower-12" data-name="flower" d="M4.209,2.565A1.644,1.644,0,1,0,5.854,4.209,1.646,1.646,0,0,0,4.209,2.565Zm0,2.631A.987.987,0,1,1,5.2,4.209.988.988,0,0,1,4.209,5.2Zm4.21-.987a1.646,1.646,0,0,0-.8-1.412,1.644,1.644,0,0,0-2-2A1.644,1.644,0,0,0,2.8.8a1.644,1.644,0,0,0-2,2,1.644,1.644,0,0,0,0,2.824,1.644,1.644,0,0,0,2,2,1.644,1.644,0,0,0,2.824,0,1.644,1.644,0,0,0,2-2,1.646,1.646,0,0,0,.8-1.412ZM7.1,5.141a.329.329,0,0,0-.188.453A.987.987,0,0,1,5.594,6.912a.329.329,0,0,0-.453.188.987.987,0,0,1-1.863,0,.329.329,0,0,0-.453-.188A.987.987,0,0,1,1.507,5.595a.329.329,0,0,0-.188-.453.987.987,0,0,1,0-1.863.329.329,0,0,0,.188-.453A.987.987,0,0,1,2.824,1.507a.329.329,0,0,0,.453-.188.987.987,0,0,1,1.863,0,.329.329,0,0,0,.453.188A.987.987,0,0,1,6.912,2.824a.329.329,0,0,0,.188.453.987.987,0,0,1,0,1.863Zm0,0" transform="translate(913 496.93)" fill="#dfdfdf"/>
        <path id="flower-13" data-name="flower" d="M4.209,2.565A1.644,1.644,0,1,0,5.854,4.209,1.646,1.646,0,0,0,4.209,2.565Zm0,2.631A.987.987,0,1,1,5.2,4.209.988.988,0,0,1,4.209,5.2Zm4.21-.987a1.646,1.646,0,0,0-.8-1.412,1.644,1.644,0,0,0-2-2A1.644,1.644,0,0,0,2.8.8a1.644,1.644,0,0,0-2,2,1.644,1.644,0,0,0,0,2.824,1.644,1.644,0,0,0,2,2,1.644,1.644,0,0,0,2.824,0,1.644,1.644,0,0,0,2-2,1.646,1.646,0,0,0,.8-1.412ZM7.1,5.141a.329.329,0,0,0-.188.453A.987.987,0,0,1,5.594,6.912a.329.329,0,0,0-.453.188.987.987,0,0,1-1.863,0,.329.329,0,0,0-.453-.188A.987.987,0,0,1,1.507,5.595a.329.329,0,0,0-.188-.453.987.987,0,0,1,0-1.863.329.329,0,0,0,.188-.453A.987.987,0,0,1,2.824,1.507a.329.329,0,0,0,.453-.188.987.987,0,0,1,1.863,0,.329.329,0,0,0,.453.188A.987.987,0,0,1,6.912,2.824a.329.329,0,0,0,.188.453.987.987,0,0,1,0,1.863Zm0,0" transform="translate(913 505.93)" fill="#dfdfdf"/>
        <path id="flower-14" data-name="flower" d="M4.209,2.565A1.644,1.644,0,1,0,5.854,4.209,1.646,1.646,0,0,0,4.209,2.565Zm0,2.631A.987.987,0,1,1,5.2,4.209.988.988,0,0,1,4.209,5.2Zm4.21-.987a1.646,1.646,0,0,0-.8-1.412,1.644,1.644,0,0,0-2-2A1.644,1.644,0,0,0,2.8.8a1.644,1.644,0,0,0-2,2,1.644,1.644,0,0,0,0,2.824,1.644,1.644,0,0,0,2,2,1.644,1.644,0,0,0,2.824,0,1.644,1.644,0,0,0,2-2,1.646,1.646,0,0,0,.8-1.412ZM7.1,5.141a.329.329,0,0,0-.188.453A.987.987,0,0,1,5.594,6.912a.329.329,0,0,0-.453.188.987.987,0,0,1-1.863,0,.329.329,0,0,0-.453-.188A.987.987,0,0,1,1.507,5.595a.329.329,0,0,0-.188-.453.987.987,0,0,1,0-1.863.329.329,0,0,0,.188-.453A.987.987,0,0,1,2.824,1.507a.329.329,0,0,0,.453-.188.987.987,0,0,1,1.863,0,.329.329,0,0,0,.453.188A.987.987,0,0,1,6.912,2.824a.329.329,0,0,0,.188.453.987.987,0,0,1,0,1.863Zm0,0" transform="translate(921 482.93)" fill="#dfdfdf"/>
        <path id="flower-15" data-name="flower" d="M4.209,2.565A1.644,1.644,0,1,0,5.854,4.209,1.646,1.646,0,0,0,4.209,2.565Zm0,2.631A.987.987,0,1,1,5.2,4.209.988.988,0,0,1,4.209,5.2Zm4.21-.987a1.646,1.646,0,0,0-.8-1.412,1.644,1.644,0,0,0-2-2A1.644,1.644,0,0,0,2.8.8a1.644,1.644,0,0,0-2,2,1.644,1.644,0,0,0,0,2.824,1.644,1.644,0,0,0,2,2,1.644,1.644,0,0,0,2.824,0,1.644,1.644,0,0,0,2-2,1.646,1.646,0,0,0,.8-1.412ZM7.1,5.141a.329.329,0,0,0-.188.453A.987.987,0,0,1,5.594,6.912a.329.329,0,0,0-.453.188.987.987,0,0,1-1.863,0,.329.329,0,0,0-.453-.188A.987.987,0,0,1,1.507,5.595a.329.329,0,0,0-.188-.453.987.987,0,0,1,0-1.863.329.329,0,0,0,.188-.453A.987.987,0,0,1,2.824,1.507a.329.329,0,0,0,.453-.188.987.987,0,0,1,1.863,0,.329.329,0,0,0,.453.188A.987.987,0,0,1,6.912,2.824a.329.329,0,0,0,.188.453.987.987,0,0,1,0,1.863Zm0,0" transform="translate(921 491.93)" fill="#dfdfdf"/>
        <path id="flower-16" data-name="flower" d="M4.209,2.565A1.644,1.644,0,1,0,5.854,4.209,1.646,1.646,0,0,0,4.209,2.565Zm0,2.631A.987.987,0,1,1,5.2,4.209.988.988,0,0,1,4.209,5.2Zm4.21-.987a1.646,1.646,0,0,0-.8-1.412,1.644,1.644,0,0,0-2-2A1.644,1.644,0,0,0,2.8.8a1.644,1.644,0,0,0-2,2,1.644,1.644,0,0,0,0,2.824,1.644,1.644,0,0,0,2,2,1.644,1.644,0,0,0,2.824,0,1.644,1.644,0,0,0,2-2,1.646,1.646,0,0,0,.8-1.412ZM7.1,5.141a.329.329,0,0,0-.188.453A.987.987,0,0,1,5.594,6.912a.329.329,0,0,0-.453.188.987.987,0,0,1-1.863,0,.329.329,0,0,0-.453-.188A.987.987,0,0,1,1.507,5.595a.329.329,0,0,0-.188-.453.987.987,0,0,1,0-1.863.329.329,0,0,0,.188-.453A.987.987,0,0,1,2.824,1.507a.329.329,0,0,0,.453-.188.987.987,0,0,1,1.863,0,.329.329,0,0,0,.453.188A.987.987,0,0,1,6.912,2.824a.329.329,0,0,0,.188.453.987.987,0,0,1,0,1.863Zm0,0" transform="translate(921 500.93)" fill="#dfdfdf"/>
        <path id="flower-17" data-name="flower" d="M4.209,2.565A1.644,1.644,0,1,0,5.854,4.209,1.646,1.646,0,0,0,4.209,2.565Zm0,2.631A.987.987,0,1,1,5.2,4.209.988.988,0,0,1,4.209,5.2Zm4.21-.987a1.646,1.646,0,0,0-.8-1.412,1.644,1.644,0,0,0-2-2A1.644,1.644,0,0,0,2.8.8a1.644,1.644,0,0,0-2,2,1.644,1.644,0,0,0,0,2.824,1.644,1.644,0,0,0,2,2,1.644,1.644,0,0,0,2.824,0,1.644,1.644,0,0,0,2-2,1.646,1.646,0,0,0,.8-1.412ZM7.1,5.141a.329.329,0,0,0-.188.453A.987.987,0,0,1,5.594,6.912a.329.329,0,0,0-.453.188.987.987,0,0,1-1.863,0,.329.329,0,0,0-.453-.188A.987.987,0,0,1,1.507,5.595a.329.329,0,0,0-.188-.453.987.987,0,0,1,0-1.863.329.329,0,0,0,.188-.453A.987.987,0,0,1,2.824,1.507a.329.329,0,0,0,.453-.188.987.987,0,0,1,1.863,0,.329.329,0,0,0,.453.188A.987.987,0,0,1,6.912,2.824a.329.329,0,0,0,.188.453.987.987,0,0,1,0,1.863Zm0,0" transform="translate(921 509.93)" fill="#dfdfdf"/>
        <path id="flower-18" data-name="flower" d="M4.209,2.565A1.644,1.644,0,1,0,5.854,4.209,1.646,1.646,0,0,0,4.209,2.565Zm0,2.631A.987.987,0,1,1,5.2,4.209.988.988,0,0,1,4.209,5.2Zm4.21-.987a1.646,1.646,0,0,0-.8-1.412,1.644,1.644,0,0,0-2-2A1.644,1.644,0,0,0,2.8.8a1.644,1.644,0,0,0-2,2,1.644,1.644,0,0,0,0,2.824,1.644,1.644,0,0,0,2,2,1.644,1.644,0,0,0,2.824,0,1.644,1.644,0,0,0,2-2,1.646,1.646,0,0,0,.8-1.412ZM7.1,5.141a.329.329,0,0,0-.188.453A.987.987,0,0,1,5.594,6.912a.329.329,0,0,0-.453.188.987.987,0,0,1-1.863,0,.329.329,0,0,0-.453-.188A.987.987,0,0,1,1.507,5.595a.329.329,0,0,0-.188-.453.987.987,0,0,1,0-1.863.329.329,0,0,0,.188-.453A.987.987,0,0,1,2.824,1.507a.329.329,0,0,0,.453-.188.987.987,0,0,1,1.863,0,.329.329,0,0,0,.453.188A.987.987,0,0,1,6.912,2.824a.329.329,0,0,0,.188.453.987.987,0,0,1,0,1.863Zm0,0" transform="translate(921 473.93)" fill="#dfdfdf"/>
      </g>
    </g>
  </g>
</svg>
