<svg xmlns="http://www.w3.org/2000/svg" width="78.032" height="91.839" viewBox="0 0 78.032 91.839">
  <g id="Group_17" data-name="Group 17" transform="translate(-32.024 -583.718)">
    <g id="collar" transform="translate(32.024 509.095)">
      <g id="Group_14" data-name="Group 14" transform="translate(0 74.623)">
        <path id="Path_62" data-name="Path 62" d="M77.2,101.6l-5.717-12.78c-.475-9.795-16.526-14.2-32.474-14.2-15.931,0-31.966,4.4-32.47,14.168l-5.7,12.744A8.189,8.189,0,0,0,2.6,111.142L23.3,129.5a1.631,1.631,0,0,0,1.08.41,1.483,1.483,0,0,0,.3-.029,1.619,1.619,0,0,0,1.148-.868l6.055-12.11H46.136l6.055,12.11a1.625,1.625,0,0,0,1.148.868,1.658,1.658,0,0,0,.309.029,1.6,1.6,0,0,0,1.073-.41l20.731-18.38A8.15,8.15,0,0,0,77.2,101.6ZM39.014,77.875c16.035,0,28.246,4.523,29.176,10.634L43.346,107.142H34.67L9.838,88.515C10.762,82.4,22.976,77.875,39.014,77.875ZM23.876,125.658,4.794,108.739a4.925,4.925,0,0,1-1-5.811L8.775,91.78l23.3,17.476Zm9.632-12.012,1.626-3.252h7.749l1.626,3.252Zm39.758-4.936L54.155,125.655l-8.2-16.4,23.3-17.476,5.014,11.212A4.89,4.89,0,0,1,73.266,108.709Z" transform="translate(0 -74.623)"/>
      </g>
    </g>
    <line id="Line_5" data-name="Line 5" y2="41.557" transform="translate(59.5 632.5)" fill="none" stroke="#000" stroke-linecap="round" stroke-width="3"/>
    <line id="Line_6" data-name="Line 6" y2="41.557" transform="translate(83.5 632.5)" fill="none" stroke="#000" stroke-linecap="round" stroke-width="3"/>
    <g id="Group_15" data-name="Group 15" transform="translate(0 -3)">
      <g id="Ellipse_2" data-name="Ellipse 2" transform="translate(65 639)" fill="#fff" stroke="#000" stroke-width="2">
        <circle cx="6" cy="6" r="6" stroke="none"/>
        <circle cx="6" cy="6" r="5" fill="none"/>
      </g>
      <g id="Ellipse_3" data-name="Ellipse 3" transform="translate(68 642)" fill="#fff" stroke="#000" stroke-width="2">
        <circle cx="3" cy="3" r="3" stroke="none"/>
        <circle cx="3" cy="3" r="2" fill="none"/>
      </g>
    </g>
    <g id="Group_16" data-name="Group 16" transform="translate(0 19)">
      <g id="Ellipse_2-2" data-name="Ellipse 2" transform="translate(65 639)" fill="#fff" stroke="#000" stroke-width="2">
        <circle cx="6" cy="6" r="6" stroke="none"/>
        <circle cx="6" cy="6" r="5" fill="none"/>
      </g>
      <g id="Ellipse_3-2" data-name="Ellipse 3" transform="translate(68 642)" fill="#fff" stroke="#000" stroke-width="2">
        <circle cx="3" cy="3" r="3" stroke="none"/>
        <circle cx="3" cy="3" r="2" fill="none"/>
      </g>
    </g>
  </g>
</svg>
