<svg id="pocket" xmlns="http://www.w3.org/2000/svg" width="63.763" height="70.971" viewBox="0 0 63.763 70.971">
  <path id="Path_63" data-name="Path 63" d="M62.377,0H15.248a1.386,1.386,0,1,0,0,2.772H60.991V5.547l-.053,0H58.166a1.386,1.386,0,0,0,0,2.772h2.772l.053,0V23.981L31.882,34.566,2.772,23.981V8.317H5.492a1.386,1.386,0,0,0,0-2.772H2.772V2.772H4.158A1.386,1.386,0,1,0,4.158,0H1.386A1.386,1.386,0,0,0,0,1.386V58.5a1.386,1.386,0,0,0,.912,1.3l30.5,11.09a1.388,1.388,0,0,0,.948,0l30.5-11.09a1.386,1.386,0,0,0,.912-1.3V1.386A1.386,1.386,0,0,0,62.377,0Zm-30.5,68.11L2.772,57.524V26.93l2.772,1.008v1.8a1.386,1.386,0,0,0,2.772,0v-.793l23.091,8.4a1.388,1.388,0,0,0,.948,0l23.09-8.4v.793a1.386,1.386,0,1,0,2.772,0v-1.8L60.99,26.93V57.524Zm0,0"/>
  <path id="Path_64" data-name="Path 64" d="M157.774,426.216l-2.605-.948a1.386,1.386,0,1,0-.948,2.605l2.606.948a1.386,1.386,0,1,0,.947-2.6Zm0,0" transform="translate(-132.058 -366.247)"/>
  <path id="Path_65" data-name="Path 65" d="M41.386,344.551A1.386,1.386,0,0,0,40,345.937v2.772a1.386,1.386,0,1,0,2.772,0v-2.772A1.386,1.386,0,0,0,41.386,344.551Zm0,0" transform="translate(-34.455 -296.791)"/>
  <path id="Path_66" data-name="Path 66" d="M82.591,398.876l-2.6-.948a1.386,1.386,0,1,0-.948,2.6l2.606.948a1.386,1.386,0,0,0,.947-2.605Zm0,0" transform="translate(-67.296 -342.697)"/>
  <path id="Path_67" data-name="Path 67" d="M41.386,264.551A1.386,1.386,0,0,0,40,265.937v2.772a1.386,1.386,0,1,0,2.772,0v-2.772A1.386,1.386,0,0,0,41.386,264.551Zm0,0" transform="translate(-34.455 -227.88)"/>
  <path id="Path_68" data-name="Path 68" d="M180,110.97a6.931,6.931,0,1,0,6.931-6.931A6.939,6.939,0,0,0,180,110.97Zm11.089,0a4.158,4.158,0,1,1-4.158-4.158A4.163,4.163,0,0,1,191.089,110.97Zm0,0" transform="translate(-155.049 -89.618)"/>
  <path id="Path_69" data-name="Path 69" d="M253.775,42.772a1.386,1.386,0,0,0,0-2.772H251a1.386,1.386,0,1,0,0,2.772Zm0,0" transform="translate(-215.016 -34.455)"/>
  <path id="Path_70" data-name="Path 70" d="M173.775,40H171a1.386,1.386,0,0,0,0,2.772h2.772a1.386,1.386,0,0,0,0-2.772Zm0,0" transform="translate(-146.105 -34.455)"/>
  <path id="Path_71" data-name="Path 71" d="M91,42.772h2.772a1.386,1.386,0,0,0,0-2.772H91a1.386,1.386,0,0,0,0,2.772Zm0,0" transform="translate(-77.195 -34.455)"/>
  <path id="Path_72" data-name="Path 72" d="M333.775,42.772a1.386,1.386,0,0,0,0-2.772H331a1.386,1.386,0,1,0,0,2.772Zm0,0" transform="translate(-283.927 -34.455)"/>
  <path id="Path_73" data-name="Path 73" d="M271.406,425.268l-2.606.948a1.386,1.386,0,1,0,.948,2.6l2.606-.947a1.386,1.386,0,0,0-.948-2.606Zm0,0" transform="translate(-230.755 -366.247)"/>
  <path id="Path_74" data-name="Path 74" d="M401.386,344.551A1.386,1.386,0,0,0,400,345.937v2.772a1.386,1.386,0,1,0,2.772,0v-2.772A1.386,1.386,0,0,0,401.386,344.551Zm0,0" transform="translate(-344.554 -296.791)"/>
  <path id="Path_75" data-name="Path 75" d="M346.589,397.927l-2.606.948a1.386,1.386,0,1,0,.948,2.605l2.606-.948a1.386,1.386,0,0,0-.948-2.6Zm0,0" transform="translate(-295.516 -342.696)"/>
  <path id="Path_76" data-name="Path 76" d="M401.386,264.551A1.386,1.386,0,0,0,400,265.937v2.772a1.386,1.386,0,1,0,2.772,0v-2.772A1.386,1.386,0,0,0,401.386,264.551Zm0,0" transform="translate(-344.554 -227.88)"/>
  <path id="Path_77" data-name="Path 77" d="M221.386,449.43A1.386,1.386,0,0,0,220,450.816h0a1.386,1.386,0,1,0,1.386-1.387Zm0,0" transform="translate(-189.505 -387.132)"/>
  <path id="Path_78" data-name="Path 78" d="M61.387,2.772a1.386,1.386,0,1,0,0-2.772h0a1.386,1.386,0,0,0,0,2.772Zm0,0" transform="translate(-51.683)"/>
</svg>
