<svg xmlns="http://www.w3.org/2000/svg" width="31.833" height="42.562" viewBox="0 0 31.833 42.562">
  <g id="shirt" transform="translate(-0.001 0.001)">
    <path id="Path_4" data-name="Path 4" d="M28.08,4.572H25.616l1-2.037a.693.693,0,0,0-.134-.8.673.673,0,0,0-.4-.177A33.449,33.449,0,0,0,15.917,0H15.9A33.5,33.5,0,0,0,5.65,1.585l-.014,0v0a.7.7,0,0,0-.283.17.68.68,0,0,0-.134.789l1,2.036H3.755A3.779,3.779,0,0,0,0,8.32V39.256a3.345,3.345,0,0,0,3.377,3.305h25.08a3.345,3.345,0,0,0,3.377-3.305V8.32A3.779,3.779,0,0,0,28.08,4.572ZM15.9,1.406h.016A32.024,32.024,0,0,1,24.01,2.428L15.917,6.314l-8.1-3.887A32.082,32.082,0,0,1,15.9,1.406Zm8.563,2.347-3.321,6.816L17.2,7.248Zm-9.831,3.5-3.941,3.32L7.371,3.753ZM1.408,39.256V8.32A2.37,2.37,0,0,1,3.755,5.979H6.9l2.917,6a.727.727,0,0,0,.632.406.7.7,0,0,0,.453-.164L15.214,8.6V41.154H3.377a1.937,1.937,0,0,1-1.97-1.9Zm29.019,0a1.937,1.937,0,0,1-1.97,1.9H16.621V8.6l4.306,3.628a.7.7,0,0,0,.6.15.723.723,0,0,0,.486-.395l2.917-6h3.15A2.37,2.37,0,0,1,30.427,8.32Zm0,0" transform="translate(0 0)" fill="#fff"/>
    <path id="Path_5" data-name="Path 5" d="M224.058,168.7a.7.7,0,0,0-.7-.7H215.7a.7.7,0,0,0-.7.7v9.409a.7.7,0,0,0,.7.7h7.651a.7.7,0,0,0,.7-.7Zm-1.407.7v1.583h-6.244v-1.583Zm-6.244,8V172.4h6.244v5.012Zm0,0" transform="translate(-196.093 -153.227)" fill="#fff"/>
  </g>
</svg>
