<svg xmlns="http://www.w3.org/2000/svg" width="48.917" height="65.404" viewBox="0 0 48.917 65.404">
  <g id="shirt_1_" data-name="shirt (1)" transform="translate(-0.001 0.001)">
    <path id="Path_60" data-name="Path 60" d="M43.149,7.026H39.362L40.9,3.9a1.065,1.065,0,0,0-.205-1.225A1.035,1.035,0,0,0,40.08,2.4,51.4,51.4,0,0,0,24.459,0h-.025A51.471,51.471,0,0,0,8.682,2.436L8.66,2.43V2.423a1.071,1.071,0,0,0-.434.262A1.044,1.044,0,0,0,8.02,3.9L9.557,7.026H5.77A5.807,5.807,0,0,0,0,12.786V60.324A5.14,5.14,0,0,0,5.189,65.4h38.54a5.14,5.14,0,0,0,5.189-5.079V12.786a5.807,5.807,0,0,0-5.769-5.76ZM24.433,2.161h.024A49.211,49.211,0,0,1,36.9,3.732L24.459,9.7,12.006,3.731A49.3,49.3,0,0,1,24.433,2.161ZM37.592,5.768l-5.1,10.473-6.056-5.1ZM22.485,11.139l-6.056,5.1-5.1-10.473ZM2.163,60.324V12.786a3.642,3.642,0,0,1,3.607-3.6h4.84l4.483,9.224a1.117,1.117,0,0,0,.972.624,1.079,1.079,0,0,0,.7-.251l6.617-5.572V63.241H5.189a2.976,2.976,0,0,1-3.027-2.917Zm44.593,0a2.976,2.976,0,0,1-3.027,2.917H25.54V13.214l6.617,5.575a1.08,1.08,0,0,0,.921.231,1.111,1.111,0,0,0,.747-.607l4.483-9.224h4.84a3.642,3.642,0,0,1,3.607,3.6Zm0,0" transform="translate(0 0)"/>
    <path id="Path_61" data-name="Path 61" d="M228.919,169.081A1.081,1.081,0,0,0,227.837,168H216.081A1.081,1.081,0,0,0,215,169.081V183.54a1.081,1.081,0,0,0,1.081,1.081h11.756a1.081,1.081,0,0,0,1.081-1.081Zm-2.162,1.081v2.432h-9.594v-2.432Zm-9.594,12.3v-7.7h9.594v7.7Zm0,0" transform="translate(-185.946 -145.299)"/>
  </g>
</svg>
