<svg xmlns="http://www.w3.org/2000/svg" width="81.599" height="81.6" viewBox="0 0 81.599 81.6">
  <g id="shirt-button-with-two-holes" transform="translate(-0.002)">
    <g id="Group_23" data-name="Group 23" transform="translate(0.002)">
      <g id="Group_19" data-name="Group 19">
        <path id="Path_88" data-name="Path 88" d="M40.8,81.6A40.8,40.8,0,1,1,81.6,40.8,40.845,40.845,0,0,1,40.8,81.6ZM40.8,3A37.8,37.8,0,1,0,78.6,40.8,37.839,37.839,0,0,0,40.8,3Z" transform="translate(-0.002)" fill="#030303"/>
      </g>
      <g id="Group_20" data-name="Group 20" transform="translate(7.79 7.789)">
        <path id="Path_89" data-name="Path 89" d="M63.388,96.391A33.007,33.007,0,1,1,96.4,63.385,33.044,33.044,0,0,1,63.388,96.391Zm0-63.012A30,30,0,1,0,93.4,63.385,30.04,30.04,0,0,0,63.388,33.379Z" transform="translate(-30.379 -30.376)" fill="#030303"/>
      </g>
      <g id="Group_21" data-name="Group 21" transform="translate(41.988 42.184)">
        <path id="Path_90" data-name="Path 90" d="M172.694,182.4a8.949,8.949,0,1,1,8.95-8.95A8.959,8.959,0,0,1,172.694,182.4Zm0-14.894a5.946,5.946,0,1,0,5.947,5.944A5.952,5.952,0,0,0,172.694,167.51Z" transform="translate(-163.744 -164.507)" fill="#030303"/>
      </g>
      <g id="Group_22" data-name="Group 22" transform="translate(21.711 21.711)">
        <path id="Path_91" data-name="Path 91" d="M93.619,102.565a8.949,8.949,0,1,1,8.95-8.95A8.96,8.96,0,0,1,93.619,102.565Zm0-14.9a5.946,5.946,0,1,0,5.947,5.946A5.953,5.953,0,0,0,93.619,87.669Z" transform="translate(-84.669 -84.666)" fill="#030303"/>
      </g>
    </g>
  </g>
</svg>
