<svg xmlns="http://www.w3.org/2000/svg" width="32.228" height="40.265" viewBox="0 0 32.228 40.265">
  <g id="shopping-bag" transform="translate(-43.202 -1)">
    <path id="Path_2" data-name="Path 2" d="M81.02,34.806,78.715,8.843a1.11,1.11,0,0,0-1.1-1.013H72.868a7.955,7.955,0,0,0-15.908,0H52.217a1.1,1.1,0,0,0-1.1,1.013L48.808,34.806c0,.033-.008.066-.008.1,0,2.956,2.709,5.36,6.044,5.36H74.984c3.335,0,6.044-2.4,6.044-5.36A.4.4,0,0,0,81.02,34.806ZM64.914,2.223a5.737,5.737,0,0,1,5.731,5.607H59.183A5.737,5.737,0,0,1,64.914,2.223Zm10.07,35.818H54.844c-2.091,0-3.788-1.383-3.821-3.088L53.23,10.062h3.722v3.376a1.112,1.112,0,0,0,2.223,0V10.062h11.47v3.376a1.112,1.112,0,0,0,2.223,0V10.062H76.59l2.215,24.892C78.772,36.658,77.068,38.042,74.984,38.042Z" transform="translate(-5.598 1)" fill="#fff"/>
  </g>
</svg>
