<svg xmlns="http://www.w3.org/2000/svg" width="30" height="30.8" viewBox="0 0 30 30.8">
  <g id="Group_38" data-name="Group 38" transform="translate(-896 -424)">
    <g id="Rectangle_35" data-name="Rectangle 35" transform="translate(896 424)" fill="#fff" stroke="rgba(112,112,112,0.22)" stroke-width="1">
      <rect width="30" height="30" stroke="none"/>
      <rect x="0.5" y="0.5" width="29" height="29" fill="none"/>
    </g>
    <rect id="Rectangle_36" data-name="Rectangle 36" width="10.8" height="10.8" transform="translate(896 424)" fill="#dfdfdf"/>
    <g id="Rectangle_37" data-name="Rectangle 37" transform="translate(905.6 424)" fill="#fff" stroke="rgba(112,112,112,0.22)" stroke-width="1">
      <rect width="10.8" height="10.8" stroke="none"/>
      <rect x="0.5" y="0.5" width="9.8" height="9.8" fill="none"/>
    </g>
    <rect id="Rectangle_38" data-name="Rectangle 38" width="10.8" height="10.8" transform="translate(915.2 424)" fill="#dfdfdf"/>
    <g id="Rectangle_39" data-name="Rectangle 39" transform="translate(896 434)" fill="#fff" stroke="rgba(112,112,112,0.22)" stroke-width="1">
      <rect width="10.8" height="10.8" stroke="none"/>
      <rect x="0.5" y="0.5" width="9.8" height="9.8" fill="none"/>
    </g>
    <rect id="Rectangle_40" data-name="Rectangle 40" width="10.8" height="10.8" transform="translate(905.6 434)" fill="#dfdfdf"/>
    <g id="Rectangle_41" data-name="Rectangle 41" transform="translate(915.2 434)" fill="#fff" stroke="rgba(112,112,112,0.22)" stroke-width="1">
      <rect width="10.8" height="10.8" stroke="none"/>
      <rect x="0.5" y="0.5" width="9.8" height="9.8" fill="none"/>
    </g>
    <rect id="Rectangle_42" data-name="Rectangle 42" width="10.8" height="10.8" transform="translate(896 444)" fill="#dfdfdf"/>
    <g id="Rectangle_43" data-name="Rectangle 43" transform="translate(905.6 444)" fill="#fff" stroke="rgba(112,112,112,0.22)" stroke-width="1">
      <rect width="10.8" height="10.8" stroke="none"/>
      <rect x="0.5" y="0.5" width="9.8" height="9.8" fill="none"/>
    </g>
    <rect id="Rectangle_44" data-name="Rectangle 44" width="10.8" height="10.8" transform="translate(915.2 444)" fill="#dfdfdf"/>
  </g>
</svg>
