<svg xmlns="http://www.w3.org/2000/svg" width="30.284" height="31.799" viewBox="0 0 30.284 31.799">
  <g id="youtube" transform="translate(0)">
    <path id="Path_14" data-name="Path 14" d="M224.113,213.559l4.792-2.76-4.792-2.76Zm0,0" transform="translate(-210.787 -194.9)" fill="#10a1ae"/>
    <path id="Path_15" data-name="Path 15" d="M15.142,0C6.781,0,0,7.12,0,15.9S6.781,31.8,15.142,31.8s15.142-7.12,15.142-15.9S23.5,0,15.142,0ZM24.6,15.916a27.525,27.525,0,0,1-.39,4.779,2.433,2.433,0,0,1-1.668,1.751c-1.481.409-7.4.409-7.4.409s-5.908,0-7.4-.426A2.433,2.433,0,0,1,6.07,20.679,27.4,27.4,0,0,1,5.68,15.9a27.507,27.507,0,0,1,.39-4.779A2.484,2.484,0,0,1,7.738,9.353c1.481-.409,7.4-.409,7.4-.409s5.923,0,7.4.426a2.433,2.433,0,0,1,1.668,1.751,26.121,26.121,0,0,1,.39,4.8Zm0,0" fill="#10a1ae"/>
  </g>
</svg>
